<svg xmlns="http://www.w3.org/2000/svg" viewBox="0 0 64 64">
  <path fill="#DC2626" stroke="#B91C1C" stroke-miterlimit="10" stroke-width=".5" d="M43.5 42.1l-6.6-12.2-6.4-11.8a3 3 0 00-5.3 0l-6.4 11.8-6.6 12.2a3 3 0 002.6 4.5h26a3 3 0 002.7-4.5z"/>
  <path fill="white" d="M30.4 27.1c.2-.2.7-.2.7-.2h1.9c.3 0 .6.1.7.2s.2.3.2.6l-.4 9c0 .3-.1.5-.2.6s-.3.2-.7.2h-1.2c-.3 0-.5-.1-.7-.2s-.2-.3-.2-.6l-.4-9c0-.3.1-.5.2-.6zm3.6 13.5c0 .6-.1 1-.4 1.2-.2.2-.7.3-1.4.3h-.5c-.7 0-1.1-.1-1.4-.3-.2-.2-.4-.6-.4-1.2v-.4c0-.6.1-1 .4-1.2.3-.2.7-.3 1.4-.3h.5c.7 0 1.1.1 1.4.3.2.2.4.6.4 1.2z"/>
</svg>
